<svg width="22" height="20" viewBox="0 0 22 20" fill="none" xmlns="http://www.w3.org/2000/svg">
<path d="M20.7617 9.33828L10.4312 0.372265C10.352 0.303906 10.2508 0.265625 10.1441 0.265625H7.72422C7.52187 0.265625 7.42891 0.517188 7.58203 0.648438L17.1578 8.96094H1.15625C1.03594 8.96094 0.9375 9.05937 0.9375 9.17969V10.8203C0.9375 10.9406 1.03594 11.0391 1.15625 11.0391H17.1551L7.5793 19.3516C7.42617 19.4855 7.51914 19.7344 7.72148 19.7344H10.2234C10.2754 19.7344 10.3273 19.7152 10.3656 19.6797L20.7617 10.6617C20.8564 10.5794 20.9323 10.4777 20.9843 10.3636C21.0363 10.2494 21.0632 10.1254 21.0632 10C21.0632 9.87456 21.0363 9.75057 20.9843 9.63642C20.9323 9.52226 20.8564 9.4206 20.7617 9.33828Z" fill="#20BC7E"/>
</svg>
