<svg width="55" height="54" viewBox="0 0 55 54" fill="none" xmlns="http://www.w3.org/2000/svg">
<path d="M44 21H40C39.9984 19.2501 39.3658 17.5724 38.2409 16.335C37.116 15.0977 35.5908 14.4017 34 14.4V10C36.6512 10.0035 39.1929 11.1635 41.0676 13.2257C42.9422 15.2878 43.9968 18.0837 44 21V21Z" fill="#ACACAC"/>
<path d="M52.8845 20.7699H48.6536C48.6491 16.9153 47.0875 13.2198 44.3114 10.4942C41.5353 7.76857 37.7714 6.23538 33.8454 6.23099V2.07701C38.8931 2.0825 43.7326 4.05369 47.3019 7.5581C50.8712 11.0625 52.8789 15.8139 52.8845 20.7699V20.7699ZM36.6653 38.3869L41.4039 33.7345C42.0382 33.1116 42.8447 32.6851 43.7235 32.5079C44.6023 32.3307 45.5147 32.4105 46.3477 32.7375L52.1187 35.0056C52.9693 35.3397 53.6984 35.9164 54.212 36.6613C54.7255 37.4062 55 38.285 55 39.1845V49.4884C55.0015 50.1009 54.8756 50.7071 54.6302 51.2702C54.3848 51.8332 54.0249 52.3411 53.5726 52.7628C53.1202 53.1846 52.585 53.5112 51.9997 53.7228C51.4143 53.9344 50.7911 54.0265 50.1683 53.9934C9.71641 51.5218 1.54649 17.8829 0.0297057 5.00141C-0.0437567 4.37166 0.0194092 3.73377 0.215049 3.1297C0.41069 2.52564 0.734371 1.96908 1.1648 1.49665C1.59523 1.02421 2.12266 0.646597 2.71239 0.388645C3.30213 0.130692 3.9408 -0.00175388 4.58641 1.75369e-05H14.8951C15.8112 -1.13458e-05 16.7063 0.269469 17.465 0.773695C18.2237 1.27792 18.811 1.99376 19.1514 2.82888L21.4593 8.4949C21.7924 9.31277 21.8737 10.2086 21.6932 11.0714C21.5127 11.9342 21.0784 12.7261 20.4439 13.3488L15.7053 18.0013C15.7053 18.0013 18.3327 36.1376 36.6653 38.3869Z" fill="#ACACAC"/>
</svg>
