<svg width="54" height="72" viewBox="0 0 54 72" fill="none" xmlns="http://www.w3.org/2000/svg">
<path d="M27.1339 38.4514C32.4495 38.4514 34.9144 42.4868 35.4341 48.2153C35.5567 49.5866 35.4285 51.5846 35.253 53.8999C34.6556 61.5904 33.9682 71.0404 39.0892 71.0404C43.4194 71.0404 45.6446 62.7311 46.9282 53.2609C48.168 43.8851 46.8551 39.2197 47.4997 35.0573C48.7305 27.1699 55.6166 20.0981 53.4892 10.0406C52.3114 4.46175 49.2401 1.83713 46.1959 0.734625C39.186 -1.81687 34.659 3.09938 27.1316 3.09938C19.6042 3.09938 15.0784 -1.81687 8.06512 0.734625C5.02424 1.83713 1.95299 4.46175 0.772869 10.0406C-1.35226 20.097 5.53049 27.1699 6.76462 35.0573C7.40924 39.2197 6.09749 43.8851 7.33724 53.2609C8.62087 62.7322 10.8461 71.0404 15.1762 71.0404C20.2939 71.0404 19.611 61.5904 19.0125 53.8999C18.837 51.5858 18.7076 49.5866 18.8302 48.2153C19.3477 42.4868 21.8475 38.4514 27.1316 38.4514H27.1339Z" fill="#41D399"/>
</svg>
