<svg width="60" height="62" viewBox="0 0 60 62" fill="none" xmlns="http://www.w3.org/2000/svg">
<path d="M13.7249 22.1567C14.3141 24.2554 15.2366 26.0599 16.0047 27.3314L16.005 27.3319C16.3155 27.8472 16.6471 28.3495 16.999 28.8376L17.0013 28.8407C17.0424 28.8986 17.084 28.9562 17.1263 29.0133L18.0155 28.2807L18.3334 28.6666L18.6514 29.0525L17.7506 29.7946L17.8409 29.9043L17.988 29.8798L18.1402 30.2466C19.1542 32.6899 20.898 34.7603 23.1333 36.1749C25.3686 37.5894 27.9863 38.2791 30.6284 38.1495C33.2705 38.02 35.8081 37.0775 37.8943 35.4511C39.9805 33.8246 41.5134 31.5935 42.2834 29.0627L42.3533 28.8332L42.5761 28.7441C42.8036 28.6531 42.9946 28.5195 43.1392 28.4027L43.1392 28.4027C43.776 27.8883 44.4554 26.8857 45.056 25.764L45.0561 25.7637C46.2928 23.4572 47.5568 19.9348 47.5568 16.685C47.5568 10.4467 43.5642 6.67859 39.1884 4.45227C34.8306 2.23575 29.8792 1.41739 27.3908 1.0856C25.1997 0.795428 23.4736 1.06377 22.1216 1.73738L13.7249 22.1567ZM13.7249 22.1567C13.1375 20.0587 12.875 17.6223 13.4826 15.1214C14.0727 12.6941 15.467 10.2877 18.0264 8.12163L18.1537 8.01396L18.1908 7.85149L18.2358 7.65499L18.2358 7.65483L18.3271 7.25649C18.4996 6.52382 18.7741 5.48546 19.3315 4.47098C19.8979 3.44141 20.7659 2.41374 22.1214 1.73749L13.7249 22.1567ZM20.0484 28.6911V28.6066V28.605V28.4779L20.1091 28.3662C20.4381 27.7611 20.7823 26.8938 21.1261 25.6398C21.318 24.9346 21.4855 23.9479 21.6584 22.9071C21.6584 22.9068 21.6585 22.9066 21.6585 22.9064L21.7199 22.5282L21.7202 22.5264C21.73 22.4672 21.7399 22.4077 21.7498 22.3479C21.9008 21.4378 22.0623 20.4649 22.2564 19.497L20.0484 28.6911ZM20.0484 28.6911L20.0762 28.7709M20.0484 28.6911L20.0762 28.7709M20.0762 28.7709C20.8351 30.9535 22.2926 32.8249 24.2228 34.0954C26.153 35.3659 28.4483 35.9644 30.7532 35.7984C33.058 35.6324 35.2438 34.711 36.972 33.177C38.5578 31.7694 39.6772 29.918 40.1895 27.8695M20.0762 28.7709L40.1895 27.8695M40.1895 27.8695L40.5615 27.9946L40.5089 27.2465C40.5031 27.1639 40.5001 27.0811 40.5001 26.9983L40.1895 27.8695ZM39.7393 20.9721L39.7394 20.9725C40.1101 22.2197 40.5001 24.1927 40.5001 26.9982L39.7393 20.9721ZM39.7393 20.9721C39.6665 20.7281 39.5858 20.4865 39.4972 20.2478L39.3699 19.9044M39.7393 20.9721L39.3699 19.9044M39.3699 19.9044L39.0041 19.9222M39.3699 19.9044L39.0041 19.9222M39.0041 19.9222L38.9479 19.925H38.8934V19.9249M39.0041 19.9222L38.8934 19.9249M38.8934 19.9249L38.8826 19.9251M38.8934 19.9249L38.8826 19.9251M38.8826 19.9251C37.6689 19.9513 36.4556 19.8589 35.2598 19.6491L35.2567 19.6486M38.8826 19.9251L35.2567 19.6486M35.2567 19.6486C32.4583 19.176 28.6437 17.992 24.1346 15.2303L23.6495 14.9332M35.2567 19.6486L23.6495 14.9332M23.6495 14.9332L23.4171 15.4523M23.6495 14.9332L23.4171 15.4523M23.4171 15.4523C23.3108 15.6897 23.206 15.9537 23.1026 16.2435L23.102 16.2451M23.4171 15.4523L23.102 16.2451M23.102 16.2451C22.7639 17.2024 22.4901 18.3269 22.2565 19.4969L23.102 16.2451ZM15.9737 21.5283L15.9737 21.5283C15.4593 19.6946 15.2618 17.681 15.7509 15.6735L15.9737 21.5283ZM15.9737 21.5283L15.9748 21.5324M15.9737 21.5283L15.9748 21.5324M15.9748 21.5324C16.4024 23.0082 17.0097 24.4258 17.7831 25.7533L18.2151 25.5016M15.9748 21.5324L18.2151 25.5016M18.2151 25.5016L18.6922 25.6513C18.7572 25.444 18.8179 25.2355 18.8744 25.0257C19.0291 24.459 19.1781 23.6033 19.3549 22.5273C19.355 22.5269 19.3551 22.5265 19.3551 22.5261L19.4181 22.1553L19.4181 22.1553L19.419 22.1498C19.5837 21.1084 19.7671 20.07 19.969 19.0352C20.2119 17.8223 20.5113 16.5743 20.903 15.4653C21.2897 14.3772 21.8011 13.3137 22.5242 12.5527L22.5244 12.5525L23.1995 11.8412L24.0159 12.3859L24.0163 12.3861C28.8714 15.6189 32.8866 16.8806 35.645 17.346C36.6883 17.5309 37.7471 17.6137 38.8064 17.5932L38.8081 17.5932C39.0723 17.5872 39.3362 17.5695 39.5988 17.5402L39.5988 17.5403L39.6099 17.5389L39.7715 17.5172L39.7908 17.5146L39.8098 17.5105L39.83 17.5062L40.5961 17.3523L40.7569 17.6018L39.7781 18.231L40.0484 18.6516L40.3188 19.0722L41.2694 18.4611C41.2997 18.5216 41.329 18.5825 41.3575 18.6439C41.6025 19.1814 41.8083 19.7359 41.9733 20.303L41.9743 20.3063C42.2134 21.1074 42.4478 22.1246 42.611 23.3747L42.8388 25.12L43.5625 23.5156C44.4626 21.5202 45.2234 18.9643 45.2234 16.685C45.2234 11.6802 42.1018 8.55256 38.1301 6.53263C34.1413 4.50254 29.5162 3.72258 27.0828 3.39934C25.2388 3.15283 24.0032 3.40617 23.1636 3.82588C22.3259 4.2429 21.7708 4.88008 21.3773 5.59349L21.3767 5.59447C20.9763 6.32439 20.7591 7.11042 20.5984 7.79191L20.5984 7.7919L20.5971 7.79784L20.5394 8.05656C20.5276 8.10666 20.5159 8.15672 20.5044 8.20615C20.4601 8.39614 20.4179 8.57696 20.3787 8.71651L20.3787 8.7165L20.3774 8.72142C20.3334 8.88445 20.2741 9.04297 20.2003 9.19486L20.1882 9.21976C20.1324 9.32632 19.9958 9.56124 19.7329 9.73939L19.7136 9.75249L19.6956 9.76734C17.3794 11.6747 16.2282 13.7114 15.751 15.6733L18.2151 25.5016ZM41.5805 26.6488L41.5445 26.4964L41.6275 26.621L41.6325 26.6176L41.5405 26.4797L41.3568 25.7016H41.3551H41.2037L41.0777 25.7857L41.0727 25.789L41.3551 26.2754V26.7016H41.3568V26.2783L41.5738 26.6521L41.5805 26.6488Z" fill="white" stroke="white"/>
<path d="M44.8855 44.9666C44.9815 44.2601 45.0276 43.5576 45.0064 42.9523L44.9944 42.6107L44.6717 42.4979C43.9462 42.2442 43.2107 42.0142 42.4718 41.8096L41.8383 41.6343V42.1697L41.293 43.2065H18.2898L17.7388 42.1631L17.5498 41.8051L17.1604 41.9155C16.9555 41.9735 16.7517 42.0347 16.5493 42.097L16.2306 42.1953L16.1989 42.5274C16.1862 42.6609 16.1772 42.7948 16.172 42.9288L16.172 42.9288L16.1718 42.9357C16.1549 43.6156 16.1949 44.2956 16.2914 44.9688M44.8855 44.9666C44.787 45.7038 44.6298 46.4318 44.4155 47.1439L44.3083 47.4999H43.9367H41.6669C41.4503 47.5 41.238 47.5604 41.0538 47.6743C40.8696 47.7883 40.7208 47.9513 40.6239 48.145L40.6239 48.1451L38.9572 51.4785L38.957 51.4789C38.8759 51.6408 38.8335 51.8193 38.8333 52.0004V55.3332C38.8333 55.6426 38.9562 55.9394 39.175 56.1581C39.3938 56.3769 39.6906 56.4999 40 56.4999H42.8333V54.1665H41.6667H41.1667V53.6665V52.3932V52.2752L41.2195 52.1696L42.2495 50.1096L42.3876 49.8332H42.6967H47.3033H47.6124L47.7505 50.1096L48.7805 52.1696L48.8333 52.2752V52.3932V53.6665V54.1665H48.3333H47.1667V56.4999H50C50.3094 56.4999 50.6062 56.3769 50.825 56.1581C51.0438 55.9394 51.1667 55.6426 51.1667 55.3332V52.0004C51.1665 51.8193 51.1241 51.6408 51.043 51.4789L51.0428 51.4785L49.3761 48.1451L49.3761 48.145C49.2792 47.9513 49.1304 47.7883 48.9462 47.6743C48.762 47.5604 48.5497 47.5 48.3331 47.4999H47.39H46.7598L46.9031 46.8862C47.1032 46.0289 47.2375 45.1577 47.3048 44.28L47.3603 43.5556L48.0171 43.8662C49.6666 44.6461 51.2043 45.5433 52.5411 46.5174L52.5413 46.5176C55.7845 48.8833 57.1667 51.2 57.1667 52.9499V58.6665V59.1665H56.6667H3.33333H2.83333V58.6665V52.9499C2.83333 51.2 4.21547 48.8833 7.45867 46.5176C9.104 45.3168 11.0597 44.2357 13.1486 43.3434L13.8134 43.0594L13.8445 43.7817C13.9001 45.0706 14.1069 46.3485 14.4608 47.5892C14.4608 47.5892 14.4608 47.5893 14.4608 47.5894L14.4741 47.6358L14.5769 47.9957L14.2606 48.1957C13.3639 48.763 12.6965 49.629 12.3763 50.6407C12.056 51.6523 12.1036 52.7446 12.5106 53.7246C12.9176 54.7046 13.6579 55.5092 14.6006 55.9964C15.5433 56.4835 16.6278 56.6219 17.6626 56.387C18.6974 56.1521 19.6159 55.5591 20.2559 54.7126C20.8959 53.8662 21.2162 52.8209 21.1602 51.7612C21.1042 50.7015 20.6756 49.6958 19.95 48.9215C19.2243 48.1472 18.2484 47.6543 17.1946 47.5297L16.8705 47.4914L16.7751 47.1792C16.5545 46.4567 16.3927 45.7175 16.2914 44.9688M44.8855 44.9666C44.8855 44.9665 44.8856 44.9663 44.8856 44.9661L44.39 44.8999L44.8854 44.9672C44.8855 44.967 44.8855 44.9668 44.8855 44.9666ZM16.2914 44.9688C16.2913 44.9681 16.2913 44.9675 16.2912 44.9668L16.7866 44.8999L16.2917 44.9709C16.2916 44.9702 16.2915 44.9695 16.2914 44.9688ZM18.4443 39.1757L18.445 39.1756C18.5541 39.1506 18.6727 39.1729 18.8594 39.3894C19.0559 39.6174 19.2257 39.9494 19.4099 40.316L19.8566 40.0915L19.4126 40.3212C19.4268 40.3488 19.4439 40.3827 19.4622 40.4189C19.4941 40.4822 19.5296 40.5526 19.5598 40.6086L19.7014 40.8715H20H39.5833H39.8857L40.0262 40.6037C40.1983 40.2752 40.4798 39.8547 40.7991 39.5478C41.1414 39.2186 41.397 39.1394 41.5552 39.1756L41.5562 39.1758C43.4121 39.5963 45.2833 40.1881 47.0816 40.912L47.1358 40.9338L47.1669 40.9464C50.5555 42.3225 53.66 44.1708 55.9083 46.2678C58.1649 48.3725 59.5 50.6698 59.5 52.9499V61.4999H0.5V52.9499C0.5 50.0493 2.66438 47.1265 6.08386 44.6317C9.47964 42.1542 13.9985 40.1876 18.4443 39.1757ZM16.6667 54.1932C17.8372 54.1932 18.8333 53.2383 18.8333 52.0015C18.8333 50.7668 17.8375 49.8099 16.6667 49.8099C15.4961 49.8099 14.5 50.7648 14.5 52.0015C14.5 53.2363 15.4958 54.1932 16.6667 54.1932Z" fill="white" stroke="white"/>
</svg>
