<svg width="48" height="60" viewBox="0 0 48 60" fill="none" xmlns="http://www.w3.org/2000/svg">
<path d="M39 9V15C41.3869 15 43.6761 15.9482 45.364 17.636C47.0518 19.3239 48 21.6131 48 24V57C48 57.7957 47.6839 58.5587 47.1213 59.1213C46.5587 59.6839 45.7957 60 45 60H3C2.20435 60 1.44129 59.6839 0.87868 59.1213C0.316071 58.5587 0 57.7957 0 57V24C0 21.6131 0.948212 19.3239 2.63604 17.636C4.32387 15.9482 6.61305 15 9 15V9H39ZM27 27H21V33H15V39H20.997L21 45H27L26.997 39H33V33H27V27ZM45 0V6H3V0H45Z" fill="#41D399"/>
</svg>
