<svg width="36" height="36" viewBox="0 0 36 36" fill="none" xmlns="http://www.w3.org/2000/svg">
<path d="M18 2C20.6337 2 23.1596 3.05357 25.022 4.92893C26.8843 6.8043 27.9306 9.34784 27.9306 12L27.9306 24C27.9306 26.6522 26.8843 29.1957 25.022 31.0711C23.1596 32.9464 20.6337 34 18 34C15.3663 34 12.8404 32.9464 10.978 31.0711C9.1157 29.1957 8.06945 26.6522 8.06945 24L8.06945 12C8.06945 10.6868 8.32631 9.38642 8.82537 8.17316C9.32442 6.95991 10.0559 5.85752 10.978 4.92893C11.9002 4.00035 12.9949 3.26375 14.1997 2.7612C15.4046 2.25866 16.6959 2 18 2ZM18 32C20.107 32 22.1277 31.1571 23.6176 29.6569C25.1074 28.1566 25.9444 26.1217 25.9444 24L25.9444 12C25.9444 9.87827 25.1074 7.84344 23.6176 6.34314C22.1277 4.84285 20.107 4 18 4C15.893 4 13.8723 4.84285 12.3824 6.34314C10.8926 7.84344 10.0556 9.87827 10.0556 12L10.0556 24C10.0556 26.1217 10.8926 28.1566 12.3824 29.6569C13.8723 31.1571 15.893 32 18 32Z" fill="#707070"/>
<path d="M18 21C18.2634 21 18.516 21.1054 18.7022 21.2929C18.8884 21.4804 18.9931 21.7348 18.9931 22L18.9931 26C18.9931 26.2652 18.8884 26.5196 18.7022 26.7071C18.516 26.8946 18.2634 27 18 27C17.7366 27 17.484 26.8946 17.2978 26.7071C17.1116 26.5196 17.0069 26.2652 17.0069 26L17.0069 22C17.0069 21.7348 17.1116 21.4804 17.2978 21.2929C17.484 21.1054 17.7366 21 18 21Z" fill="#707070"/>
</svg>
