<svg width="54" height="55" viewBox="0 0 54 55" fill="none" xmlns="http://www.w3.org/2000/svg">
<path fill-rule="evenodd" clip-rule="evenodd" d="M35.376 26.305C37.0951 26.3111 38.7824 25.8412 40.251 24.9475C41.741 25.8392 43.4497 26.2989 45.186 26.275L50.766 24.4435C52.3365 23.2735 53.4165 21.6505 53.8215 19.849C54.2261 18.039 53.9303 16.1428 52.9935 14.542C52.053 12.9115 50.5185 11.6215 48.651 10.8895C48.2235 9.14504 47.1495 7.58354 45.6045 6.46604L40.1595 4.74704H39.5445C38.334 3.15104 36.516 2.01254 34.4355 1.54904L22.761 0.956543C20.82 1.10204 18.99 1.83254 17.5665 3.03104C16.8908 2.88726 16.2023 2.81287 15.5115 2.80904C13.8549 2.80733 12.2275 3.24523 10.7955 4.07804C9.393 4.90304 8.283 6.07754 7.6035 7.45904L3.1665 10.294C2.0769 11.6044 1.47759 13.2533 1.4715 14.9575C1.461 15.6595 1.5645 16.3585 1.7775 17.0335C0.615001 18.397 -0.0119987 20.071 1.25321e-06 21.793C-0.00299875 23.788 0.841501 25.7095 2.361 27.1615C2.4825 28.5895 3.036 29.962 3.96 31.1275C4.91737 32.3178 6.17445 33.2316 7.602 33.775C9.25151 34.6979 10.6745 35.977 11.7675 37.519C12.8167 39.0029 13.4909 40.7188 13.7325 42.52H17.8125V30.904L13.848 27.382L11.1675 30.064C10.886 30.3453 10.5044 30.5032 10.1065 30.5031C9.70856 30.503 9.32701 30.3448 9.04575 30.0633C8.76449 29.7818 8.60656 29.4002 8.6067 29.0023C8.60684 28.6044 8.76504 28.2228 9.0465 27.9415L12.1725 24.817L11.22 19.5775L6.981 17.458C6.62515 17.28 6.35459 16.9679 6.22885 16.5904C6.1031 16.2129 6.13247 15.8009 6.3105 15.445C6.48853 15.0892 6.80063 14.8186 7.17814 14.6929C7.55565 14.5671 7.96765 14.5965 8.3235 14.7745L12.474 16.8505L17.6655 13.546L16.0665 9.28004C15.9353 8.90965 15.9546 8.50255 16.1204 8.14628C16.2862 7.79002 16.5852 7.51303 16.953 7.37488C17.3209 7.23674 17.7283 7.24846 18.0876 7.40753C18.4469 7.56661 18.7295 7.86033 18.8745 8.22554L20.5815 12.7765H22.68L23.655 10.8295L22.2285 7.50254C22.0784 7.13813 22.0777 6.72928 22.2266 6.36437C22.3756 5.99947 22.6621 5.70785 23.0244 5.55255C23.3866 5.39724 23.7954 5.39075 24.1624 5.53446C24.5294 5.67818 24.8251 5.96056 24.9855 6.32054L26.2245 9.21104L31.1745 10.111C31.202 10.0849 31.2305 10.0599 31.26 10.036L34.329 7.58204C34.6401 7.33996 35.034 7.23008 35.4255 7.27616C35.817 7.32224 36.1746 7.52058 36.421 7.82829C36.6674 8.13599 36.7828 8.52832 36.7422 8.92042C36.7016 9.31252 36.5082 9.67287 36.204 9.92354L33.996 11.6905L36.5895 15.025L37.6065 12.991C37.731 12.7419 37.9224 12.5324 38.1592 12.3859C38.3961 12.2394 38.669 12.1617 38.9475 12.1615H42.63C43.0278 12.1615 43.4094 12.3196 43.6907 12.6009C43.972 12.8822 44.13 13.2637 44.13 13.6615C44.13 14.0594 43.972 14.4409 43.6907 14.7222C43.4094 15.0035 43.0278 15.1615 42.63 15.1615H39.8745L39.246 16.42L42.342 17.107C42.462 17.134 42.5775 17.176 42.687 17.23L45.141 18.457C45.3173 18.5451 45.4745 18.667 45.6037 18.8158C45.7329 18.9646 45.8315 19.1374 45.8939 19.3244C45.9563 19.5113 45.9813 19.7087 45.9674 19.9053C45.9535 20.1018 45.9011 20.2937 45.813 20.47C45.7249 20.6463 45.603 20.8036 45.4542 20.9328C45.3054 21.0619 45.1326 21.1605 44.9457 21.2229C44.5682 21.349 44.1561 21.3199 43.8 21.142L41.511 19.996L36.168 18.8095C35.8274 18.7334 35.5239 18.5408 35.31 18.265L31.365 13.195L26.4705 12.3055C26.3766 12.3932 26.2717 12.4683 26.1585 12.529L25.107 14.6305V15.844H27.288C27.5212 15.8436 27.7513 15.8975 27.96 16.0015L32.8695 18.457C33.0457 18.5452 33.2028 18.6672 33.3319 18.8161C33.4609 18.9649 33.5594 19.1378 33.6217 19.3247C33.6839 19.5116 33.7088 19.709 33.6947 19.9055C33.6807 20.102 33.6282 20.2938 33.54 20.47C33.4519 20.6462 33.3299 20.8034 33.181 20.9324C33.0321 21.0615 32.8593 21.1599 32.6724 21.2222C32.4854 21.2845 32.2881 21.3093 32.0916 21.2953C31.895 21.2813 31.7032 21.2287 31.527 21.1405L26.934 18.844H25.107V21.64C25.107 22.0379 24.949 22.4194 24.6677 22.7007C24.3864 22.982 24.0048 23.14 23.607 23.14C23.2092 23.14 22.8276 22.982 22.5463 22.7007C22.265 22.4194 22.107 22.0379 22.107 21.64V15.7765H19.749L14.217 19.2955L15.1725 24.5455L20.3085 29.11C20.4666 29.2508 20.5931 29.4234 20.6797 29.6165C20.7663 29.8096 20.811 30.0189 20.811 30.2305V42.52H25.188V34.2175C25.1914 32.7262 25.6499 31.2714 26.502 30.0475C27.3975 28.7668 28.6293 27.7582 30.0615 27.133C30.8865 26.848 31.0875 26.4655 31.3365 25.996C31.5015 25.684 31.6875 25.333 32.091 24.946C32.4405 25.1635 32.712 25.354 32.9475 25.5205C33.678 26.035 34.062 26.3065 35.3775 26.3065L35.376 26.305ZM25.5 49H13.5V46H25.5V49ZM25.5 55H13.5V52H25.5V55Z" fill="#41D399"/>
</svg>
