<svg width="60" height="60" viewBox="0 0 60 60" fill="none" xmlns="http://www.w3.org/2000/svg">
<path d="M38.484 38.484C36.2337 40.7337 33.182 41.9974 30 41.9974C26.818 41.9974 23.7663 40.7337 21.516 38.484H38.484ZM21 24H21.03H21ZM39 24H39.03H39ZM57 30C57 33.5457 56.3016 37.0567 54.9447 40.3325C53.5879 43.6082 51.5991 46.5847 49.0919 49.0919C46.5847 51.5991 43.6082 53.5879 40.3325 54.9447C37.0567 56.3016 33.5457 57 30 57C26.4543 57 22.9433 56.3016 19.6675 54.9447C16.3918 53.5879 13.4153 51.5991 10.9081 49.0919C8.40093 46.5847 6.41213 43.6082 5.05525 40.3325C3.69838 37.0567 3 33.5457 3 30C3 22.8392 5.84463 15.9716 10.9081 10.9081C15.9716 5.84464 22.8392 3 30 3C37.1608 3 44.0284 5.84464 49.0919 10.9081C54.1554 15.9716 57 22.8392 57 30Z" stroke="white" stroke-width="6" stroke-linecap="round" stroke-linejoin="round"/>
</svg>
