<svg width="32" height="22" viewBox="0 0 32 22" fill="none" xmlns="http://www.w3.org/2000/svg">
<path d="M31.3333 3.67594C31.1521 3.02958 30.7992 2.4444 30.312 1.98261C29.811 1.50661 29.1971 1.16612 28.528 0.993272C26.024 0.333272 15.992 0.333272 15.992 0.333272C11.8098 0.285689 7.62857 0.494971 3.472 0.959938C2.80292 1.14556 2.19008 1.49365 1.688 1.97327C1.19467 2.44794 0.837332 3.03327 0.650666 3.67461C0.202256 6.09026 -0.0156117 8.54306 -1.06363e-06 10.9999C-0.0160011 13.4546 0.201332 15.9066 0.650666 18.3253C0.833332 18.9639 1.18933 19.5466 1.684 20.0173C2.17867 20.4879 2.79467 20.8279 3.472 21.0079C6.00933 21.6666 15.992 21.6666 15.992 21.6666C20.1796 21.7143 24.3661 21.505 28.528 21.0399C29.1971 20.8671 29.811 20.5266 30.312 20.0506C30.799 19.5889 31.1516 19.0036 31.332 18.3573C31.7921 15.9425 32.0158 13.4887 32 11.0306C32.0346 8.56208 31.8112 6.09669 31.3333 3.67461V3.67594ZM12.8027 15.5653V6.43594L21.1493 11.0013L12.8027 15.5653Z" fill="#FF0000"/>
</svg>
